<?xml version="1.0" encoding="UTF-8"?>
<svg version="1.1" xmlns="http://www.w3.org/2000/svg" width="512" height="512">
<path d="M0 0 C168.96 0 337.92 0 512 0 C512 168.96 512 337.92 512 512 C343.04 512 174.08 512 0 512 C0 343.04 0 174.08 0 0 Z " fill="#232B31" transform="translate(0,0)"/>
<path d="M0 0 C168.96 0 337.92 0 512 0 C512 168.96 512 337.92 512 512 C343.04 512 174.08 512 0 512 C0 343.04 0 174.08 0 0 Z M244.65234375 49.04248047 C232.80693893 49.29941344 221.52426581 51.32520445 210 54 C209.19240234 54.18578613 208.38480469 54.37157227 207.55273438 54.56298828 C175.71417775 62.03280349 145.46438075 77.15955914 121 99 C120.51241211 99.4340918 120.02482422 99.86818359 119.52246094 100.31542969 C115.96642624 103.49339941 112.47343955 106.73203152 109 110 C108.29101562 110.65484375 107.58203125 111.3096875 106.8515625 111.984375 C83.5452709 134.24426167 66.13459043 166.35945224 57 197 C56.66427979 198.1127832 56.66427979 198.1127832 56.32177734 199.24804688 C45.04166844 237.61488914 45.73722455 280.00480723 58 318 C58.36085693 319.16160645 58.36085693 319.16160645 58.72900391 320.34667969 C66.9590087 346.65093938 80.59833836 371.4016002 99 392 C99.65983887 392.74805908 99.65983887 392.74805908 100.33300781 393.51123047 C115.38805163 410.52167579 132.17897968 424.77362368 152 436 C153.10093994 436.62624268 153.10093994 436.62624268 154.22412109 437.26513672 C174.71226057 448.78012626 195.89101206 456.70814669 219 461 C219.81903809 461.16226074 220.63807617 461.32452148 221.48193359 461.49169922 C255.68765791 468.1353847 291.19854857 463.91917457 324 453 C325.07967041 452.65678711 325.07967041 452.65678711 326.18115234 452.30664062 C375.03443896 436.69856183 416.64170558 398.36436929 440.34130859 353.45849609 C465.58520444 303.92768683 471.75317886 246.92596508 454.85058594 193.5703125 C436.84136231 139.14978829 398.74373857 95.62490019 347.85986328 69.72094727 C334.69689153 63.23834661 321.13332752 58.84523651 307 55 C305.77410156 54.65799561 305.77410156 54.65799561 304.5234375 54.30908203 C284.81965582 48.8811021 264.95522268 48.67510308 244.65234375 49.04248047 Z " fill="#081117" transform="translate(0,0)"/>
<path d="M0 0 C-2.21663133 2.21663133 -4.49110987 3.24709401 -7.3059082 4.56176758 C-15.5150342 8.41575996 -22.31757521 12.79272493 -29 19 C-30.38638672 20.24910156 -30.38638672 20.24910156 -31.80078125 21.5234375 C-44.7407365 33.72959169 -53.76969312 49.70106652 -58 67 C-58.2784375 68.06089844 -58.556875 69.12179688 -58.84375 70.21484375 C-64.95155485 96.25784501 -59.92092464 123.57471916 -46.07080078 146.34082031 C-33.29651173 166.13426956 -13.00626314 181.47849685 10 187 C10.89847656 187.27585937 11.79695312 187.55171875 12.72265625 187.8359375 C36.01398415 194.38756264 60.97618383 188.98406306 82 178 C102.59155118 166.17455197 114.70615486 147.79670237 125 127 C126.51893003 159.57261065 114.4860201 191.98784216 92.6484375 216.19628906 C91.83246094 217.08912598 91.83246094 217.08912598 91 218 C90.47148437 218.58749023 89.94296875 219.17498047 89.3984375 219.78027344 C73.89594865 236.81964696 53.10224976 248.76721157 31 255 C30.34112793 255.18933105 29.68225586 255.37866211 29.00341797 255.57373047 C20.04345804 258.11685682 11.34279764 259.7410772 2 260 C0.07800781 260.07734375 0.07800781 260.07734375 -1.8828125 260.15625 C-31.02369596 260.99555718 -58.35350209 251.89520224 -82 235 C-82.74378906 234.48179687 -83.48757812 233.96359375 -84.25390625 233.4296875 C-111.16483541 213.70491806 -128.61036472 182.45443702 -134.1015625 149.81640625 C-136.73885815 131.82942816 -135.80085581 113.51503679 -131 96 C-130.81808105 95.32582031 -130.63616211 94.65164062 -130.44873047 93.95703125 C-121.14048376 60.61703768 -98.01837863 33.25213754 -68.28515625 16.26953125 C-58.82854521 11.02892095 -49.47686344 6.79170728 -39 4 C-37.92613037 3.71020264 -37.92613037 3.71020264 -36.83056641 3.41455078 C-24.45347161 0.16718708 -12.75625869 -0.48390444 0 0 Z " fill="#FCFCFD" transform="translate(261,126)"/>
<path d="M0 0 C0.33 0 0.66 0 1 0 C1 10.56 1 21.12 1 32 C-9.56 32 -20.12 32 -31 32 C-28.72703983 30.86351992 -26.44986938 29.73515032 -24.16015625 28.6328125 C-23.13792969 28.13523437 -22.11570312 27.63765625 -21.0625 27.125 C-20.04285156 26.63257813 -19.02320313 26.14015625 -17.97265625 25.6328125 C-7.60609404 19.93869554 -3.46136128 10.89310755 0 0 Z " fill="#000000" transform="translate(511,480)"/>
<path d="M0 0 C1.92860314 2.89290471 3.32908132 5.73594516 4.8125 8.875 C7.05572688 13.38861148 9.0643242 16.75306746 13 20 C13.9075 20.845625 14.815 21.69125 15.75 22.5625 C18.83069096 25.10047856 22.17931791 26.59147317 25.8515625 28.10546875 C27.9427733 28.97617288 29.97391248 29.98695624 32 31 C21.44 31 10.88 31 0 31 C0 20.77 0 10.54 0 0 Z " fill="#000000" transform="translate(0,481)"/>
<path d="M0 0 C10.23 0 20.46 0 31 0 C28.10709529 1.92860314 25.26405484 3.32908132 22.125 4.8125 C17.61138852 7.05572688 14.24693254 9.0643242 11 13 C10.154375 13.9075 9.30875 14.815 8.4375 15.75 C5.89952144 18.83069096 4.40852683 22.17931791 2.89453125 25.8515625 C2.02382712 27.9427733 1.01304376 29.97391248 0 32 C0 21.44 0 10.88 0 0 Z " fill="#000000" transform="translate(0,0)"/>
<path d="M0 0 C10.23 0 20.46 0 31 0 C31 10.23 31 20.46 31 31 C28.4580949 27.18714235 26.60921515 23.13652797 24.6328125 19.0078125 C19.20874713 9.01611313 10.37211581 4.6811267 0 1 C0 0.67 0 0.34 0 0 Z " fill="#000000" transform="translate(481,0)"/>
</svg>
