<?xml version="1.0" encoding="UTF-8"?>
<svg version="1.1" xmlns="http://www.w3.org/2000/svg" width="196" height="148">
<path d="M0 0 C64.68 0 129.36 0 196 0 C196 48.84 196 97.68 196 148 C131.32 148 66.64 148 0 148 C0 99.16 0 50.32 0 0 Z " fill="#FDFDFD" transform="translate(0,0)"/>
<path d="M0 0 C0 0.66 0 1.32 0 2 C0.70125 2.185625 1.4025 2.37125 2.125 2.5625 C8.10219854 5.55109927 11.83101925 11.32343395 14.3046875 17.4140625 C16.34440901 24.99999305 15.96791146 32.93944613 12.33203125 39.94140625 C8.03797637 46.57767288 2.29489826 53.15932932 -5.0625 56.3125 C-14.78984061 58.01092455 -25.32323717 58.1497012 -33.9609375 52.78125 C-40.35806445 47.7529406 -44.85353647 40.81155907 -47 33 C-48.00731307 23.66478466 -46.98090017 16.39783074 -41.38671875 8.8125 C-30.42725341 -4.40689943 -15.6306738 -5.92765959 0 0 Z " fill="#FBFBFB" transform="translate(114,47)"/>
<path d="M0 0 C12.64451983 6.70695471 21.09302366 16.98307526 25.33520508 30.63671875 C27.94111906 43.98892564 23.55446119 55.38464588 16.59301758 66.59375 C10.96068156 74.07012485 0.45135451 80.6122988 -8.8137207 82.16796875 C-11.53719358 82.38153496 -14.21047391 82.44614893 -16.94213867 82.42578125 C-17.90313477 82.42215576 -18.86413086 82.41853027 -19.85424805 82.41479492 C-31.49490897 82.05273211 -39.60524365 77.48719131 -48.25463867 69.73828125 C-56.69585852 59.81234092 -60.67482819 48.87713065 -60.53198242 35.92578125 C-59.60210946 25.2387906 -53.73586313 14.70704026 -46.00463867 7.42578125 C-33.80427072 -2.78944209 -14.91552635 -6.87199466 0 0 Z M-42.25463867 20.73828125 C-47.7921529 28.89952246 -49.05547365 35.92233251 -48.25463867 45.73828125 C-46.17628732 53.87640402 -40.27637877 62.14150642 -33.25463867 66.73828125 C-24.97215174 70.44480855 -14.81893813 71.39980048 -6.06713867 68.80078125 C2.18702913 65.12057905 9.58541873 57.3509788 12.81567383 48.95703125 C15.05320785 41.21027482 14.76427138 32.93622527 11.01489258 25.7421875 C7.81059247 20.68432301 4.78443061 16.33685841 -1.25463867 14.73828125 C-1.25463867 14.07828125 -1.25463867 13.41828125 -1.25463867 12.73828125 C-16.57406937 6.92865516 -31.10611789 8.22860386 -42.25463867 20.73828125 Z " fill="#070707" transform="translate(115.254638671875,34.26171875)"/>
<path d="M0 0 C4.62162293 1.92902057 7.93894082 6.1996025 11.42114258 9.69262695 C12.26999023 10.51311523 13.11883789 11.33360352 13.9934082 12.17895508 C14.79069336 12.97366211 15.58797852 13.76836914 16.40942383 14.5871582 C17.14330322 15.31394775 17.87718262 16.0407373 18.63330078 16.78955078 C20.10864258 18.88012695 20.10864258 18.88012695 19.94165039 21.04199219 C18.87694297 23.39140079 17.55281074 24.52479242 15.54614258 26.13012695 C14.90547852 26.6509082 14.26481445 27.17168945 13.60473633 27.70825195 C13.11102539 28.0949707 12.61731445 28.48168945 12.10864258 28.88012695 C11.38161133 28.13569336 11.38161133 28.13569336 10.63989258 27.3762207 C6.54710465 23.22833756 2.35819692 19.28839755 -2.05932617 15.48950195 C-4.45187551 13.38773153 -6.67502716 11.16571754 -8.89135742 8.88012695 C-7.37763291 5.16462134 -4.48359023 -0.28416714 0 0 Z " fill="#0C0C0C" transform="translate(141.891357421875,109.119873046875)"/>
<path d="M0 0 C10.23 0 20.46 0 31 0 C31 3.96 31 7.92 31 12 C20.77 12 10.54 12 0 12 C0 8.04 0 4.08 0 0 Z " fill="#0B0B0B" transform="translate(153,68)"/>
<path d="M0 0 C10.23 0 20.46 0 31 0 C31 3.96 31 7.92 31 12 C20.77 12 10.54 12 0 12 C0 8.04 0 4.08 0 0 Z " fill="#0B0B0B" transform="translate(12,68)"/>
<path d="M0 0 C4.57558689 3.81298907 8.82253319 7.78851027 13 12.03125 C15.86905402 14.85547505 18.90799871 17.42333226 22 20 C20.23770311 23.77519562 18.23124812 26.30729323 15 29 C10.86565673 28.85203403 8.79101028 26.09202304 6.0625 23.25 C5.22847656 22.38890625 4.39445312 21.5278125 3.53515625 20.640625 C2.69855469 19.76921875 1.86195312 18.8978125 1 18 C-2.31283317 14.61153489 -2.31283317 14.61153489 -5.875 11.5 C-7 10 -7 10 -7.0625 7.625 C-5.53803646 3.85867831 -3.24035034 2.41302685 0 0 Z " fill="#0B0B0B" transform="translate(41,10)"/>
<path d="M0 0 C3.76488042 1.72154788 6.15063897 3.99234114 9 7 C7.51346494 10.46629835 5.54277649 12.69022036 2.8671875 15.328125 C2.06152344 16.12734375 1.25585938 16.9265625 0.42578125 17.75 C-0.41597656 18.575 -1.25773437 19.4 -2.125 20.25 C-2.97449219 21.09046875 -3.82398437 21.9309375 -4.69921875 22.796875 C-6.79504923 24.86915683 -8.89540713 26.93662393 -11 29 C-14.76488042 27.27845212 -17.15063897 25.00765886 -20 22 C-18.51346494 18.53370165 -16.54277649 16.30977964 -13.8671875 13.671875 C-12.65869141 12.47304687 -12.65869141 12.47304687 -11.42578125 11.25 C-10.58402344 10.425 -9.74226563 9.6 -8.875 8.75 C-8.02550781 7.90953125 -7.17601562 7.0690625 -6.30078125 6.203125 C-4.20495077 4.13084317 -2.10459287 2.06337607 0 0 Z " fill="#070707" transform="translate(54,109)"/>
<path d="M0 0 C3.76488042 1.72154788 6.15063897 3.99234114 9 7 C7.51346494 10.46629835 5.54277649 12.69022036 2.8671875 15.328125 C2.06152344 16.12734375 1.25585938 16.9265625 0.42578125 17.75 C-0.41597656 18.575 -1.25773437 19.4 -2.125 20.25 C-2.97449219 21.09046875 -3.82398438 21.9309375 -4.69921875 22.796875 C-6.79504923 24.86915683 -8.89540713 26.93662393 -11 29 C-14.76488042 27.27845212 -17.15063897 25.00765886 -20 22 C-18.51346494 18.53370165 -16.54277649 16.30977964 -13.8671875 13.671875 C-12.65869141 12.47304688 -12.65869141 12.47304688 -11.42578125 11.25 C-10.58402344 10.425 -9.74226562 9.6 -8.875 8.75 C-8.02550781 7.90953125 -7.17601562 7.0690625 -6.30078125 6.203125 C-4.20495077 4.13084317 -2.10459287 2.06337607 0 0 Z " fill="#070707" transform="translate(153,10)"/>
<path d="M0 0 C3.96 0 7.92 0 12 0 C12 6.27 12 12.54 12 19 C8.04 19 4.08 19 0 19 C0 12.73 0 6.46 0 0 Z " fill="#060606" transform="translate(92,129)"/>
<path d="M0 0 C3.96 0 7.92 0 12 0 C12 6.27 12 12.54 12 19 C8.04 19 4.08 19 0 19 C0 12.73 0 6.46 0 0 Z " fill="#060606" transform="translate(92,0)"/>
<path d="M0 0 C0.66 0.33 1.32 0.66 2 1 C-1.96 4.96 -5.92 8.92 -10 13 C-10 8.41771462 -7.08388033 6.1816619 -4 3 C-1.625 1.0625 -1.625 1.0625 0 0 Z " fill="#CACACA" transform="translate(82,47)"/>
</svg>
